<?xml version="1.0" encoding="utf-8"?>
<!-- Generator: Adobe Illustrator 23.0.5, SVG Export Plug-In . SVG Version: 6.00 Build 0)  -->
<svg version="1.1" id="Capa_1" xmlns="http://www.w3.org/2000/svg" xmlns:xlink="http://www.w3.org/1999/xlink" x="0px" y="0px"
	 viewBox="0 0 192.9 384.9" style="enable-background:new 0 0 192.9 384.9;" xml:space="preserve">
<style type="text/css">
	.st0{fill:#AE4B3C;}
</style>
<g>
	<path id="Vintage_Arrow_Down_1_" class="st0" d="M104.9,381.4l84.2-83c4.7-4.7,4.7-12.3,0-17c-4.8-4.7-12.4-4.7-17.2,0L108.5,344
		V208.4l80.9-79.7c2-2,3.6-5.5,3.6-8.5V11.9c0-10.5-13.3-15.9-20.7-8.5L96.6,78L21,3.4C13.7-3.8,0.4,1.1,0.4,13v106.1
		c0,3.5,0.7,7,3.3,9.6l80.7,79.5v136l-63.7-62.8c-4.7-4.7-12.4-4.7-17.2,0c-4.7,4.7-4.7,12.3,0,17l84.2,83c2.3,2.3,5.5,3.4,8.7,3.4
		C99.3,384.9,102.9,383.5,104.9,381.4z M24.5,115.2V40.9l59.9,59.1v74.3L24.5,115.2z M108.5,100.2l60.4-59.5V115l-60.4,59.5V100.2z"
		/>
</g>
</svg>
