<?xml version="1.0" encoding="utf-8"?>
<!-- Generator: Adobe Illustrator 23.0.5, SVG Export Plug-In . SVG Version: 6.00 Build 0)  -->
<svg version="1.1" id="Capa_1" xmlns="http://www.w3.org/2000/svg" xmlns:xlink="http://www.w3.org/1999/xlink" x="0px" y="0px"
	 viewBox="0 0 101.8 64.2" style="enable-background:new 0 0 101.8 64.2;" xml:space="preserve">
<g>
	<path d="M4.2,57.4c-0.2-4,4.9-7.4,9.5-6.5c1.3,0.3,2.8,0.2,4.2,0.2c2.7,0,5.4-0.5,8.2,0.2c2.5,0.6,5.1,0.9,7.8,0
		c1-0.3,2.2-0.3,3.2-0.1c2.1,0.4,3.9,0.1,5.8-0.6c0.8-0.3,1.8-0.5,2.7-0.6c1.8-0.2,3.7-0.4,5.5-0.2c2.3,0.2,4.3-0.5,6.5-0.6
		c2.5-0.1,5-0.1,7.5-0.2c0.2,0,0.5,0,0.7,0.1c2,1.1,4.1,0.4,6.2,0.2c1.8-0.2,3.7,0,5.6,0.1c1.7,0.1,3.3,0.3,5,0.5c0.1,0,0.2,0,0.3,0
		c3.2-1.8,6.7-0.3,10.1-0.7c4.3-0.5,9.4,4.3,8.9,8.2c-0.4,3-1.9,5.7-5.2,7.5c-1.6,0.8-3.2,0.6-4.9,0.4c-0.8-0.1-1.6-0.2-2.3-0.1
		c-2.7,0.5-5.4,0.3-8.1-0.2c-1.1-0.2-2.4-0.3-3.5-0.1c-2.9,0.5-5.6,0.2-8.3-0.7c-1.3-0.4-2.4-0.7-3.8,0.1c-1.9,1.1-4.1,0.9-6.3,0.4
		c-2.6-0.6-5.2-0.9-7.9-0.2c-3.1,0.8-6.4,0.7-9.6,0.2c-2.2-0.4-4.3-0.7-6.7-0.1c-1.6,0.4-3.6-0.1-5.4-0.1c-1.1,0-2.2,0.2-3.3,0.2
		c-3.2,0.1-6.5,0.7-9.6-0.4c-2-0.7-4-0.8-6-0.8C6.5,63.3,4.5,60.8,4.2,57.4z"/>
	<path d="M8.5,4.8c1.8,0.8,3.9-0.1,6.1-0.5c2.4-0.4,5-0.4,7.5-0.6c1.4-0.1,2.8-0.3,4.2-0.4c2.4-0.2,4.8-0.3,7.2-0.8
		c3.4-0.6,6.7-0.6,10.1-0.3c0.8,0.1,1.7-0.4,2.5-0.7C48.7,0.6,51.4,0.9,54,1c2.3,0.1,4.7,0.4,7-0.1c3-0.7,6-0.4,9,0
		c0.8,0.1,1.6,0,2.4,0c1.6,0.1,3.2,0.2,4.7,0.3c0.6,0,1.1,0.1,1.7-0.1c2.4-0.6,4.8-0.9,7.4-0.7c1.8,0.2,3.7-0.2,5.6-0.3
		c3.7-0.2,8.4,2.4,8,5.8c-0.5,3.6-2.2,5.4-6.2,6c-3.4,0.5-6.8,0.8-10.2,0.5c-0.6-0.1-1.2-0.2-1.8-0.3c-1.4-0.4-2.8-0.6-4.3-0.2
		c-0.2,0.1-0.4,0.1-0.6,0.1c-4.8-0.4-9.5,0.9-14.3,0.2c-1.7-0.3-3.7,0.4-5.5,0.7c-2.8,0.5-5.6,0.2-8.4,0c-3.2-0.2-6.5,0-9.7,0.4
		c-3,0.3-5.9,1.3-9.1,1c-1.2-0.1-2.4,0.4-3.6,0.4c-4.3,0-8.6-0.1-13-0.2c-0.7,0-1.5,0.1-2.2,0.3C8.3,15.5,6,14.9,3.7,14
		c-0.3-0.1-0.6-0.4-1-0.5c-3.9-1.4-3.1-4.4-1.1-6.3C3.2,5.7,5.7,4.8,8.5,4.8z"/>
	<path d="M75.2,38.2c-2-0.4-3.9-0.9-5.9-1c-3-0.2-6.1-0.2-9.1,0c-3.6,0.1-7.2,0.6-10.8,0.8c-4.8,0.2-9.6,0.4-14.3,0.6
		c-1.1,0-2.3,0-3.4,0.1c-3.7,0.4-7.4,0.6-11.1,0.3c-2.6-0.2-5.1-1.1-7.7-1.7c-1.4-0.3-2.8-0.6-4.2-0.8c-1.4-0.2-2.4-0.8-3-1.8
		c-0.8-1.3-1-2.6,0.1-3.9c1.4-1.6,3.1-2.5,5.7-2.5c4,0,8.1,0.1,12-1c1.9-0.5,4.1-0.3,6.2-0.5c1.2-0.1,2.5-0.3,3.7-0.5
		c1.1-0.2,2.3-0.6,3.3-0.4c2.3,0.5,4.4-0.1,6.6-0.5c3.2-0.5,6.4-1.2,9.8-0.9c1.6,0.1,3.2-0.4,4.8-0.4c1.4,0,2.9,0.2,4.3,0.3
		c0.7,0,1.4,0.1,2.1-0.1c2.8-0.6,5.6-0.8,8.5-0.5c2.6,0.2,5.1,0.1,7.7,0.7c2.3,0.5,4.6,0.8,6.9,1.2c2.3,0.5,4.9,2.9,5.2,5
		c0.4,2.5-1,4.6-3.5,5.9c-2.1,1.1-4.4,2-6.8,1.5c-2.4-0.5-4.8,0.3-7.1-0.1C75.3,38,75.2,38.1,75.2,38.2z"/>
</g>
</svg>
